<svg xmlns="http://www.w3.org/2000/svg" viewBox="0 0 24 24" width="100%" height="100%">
  <!-- Circle backdrop with brand teal color -->
  <rect width="24" height="24" rx="12" fill="#0B7A5C"/>
  <!-- Database towers representation -->
  <path fill="#FFFFFF" opacity="0.6" d="M8 8c0 .83 1.79 1.5 4 1.5s4-.67 4-1.5S14.21 6.5 12 6.5S8 7.17 8 8zm0 3.25c0 .83 1.79 1.5 4 1.5s4-.67 4-1.5V9.5c0 .83-1.79 1.5-4 1.5s-4-.67-4-1.5v1.75zm0 3.25c0 .83 1.79 1.5 4 1.5s4-.67 4-1.5V12.75c0 .83-1.79 1.5-4 1.5s-4-.67-4-1.5V14.5z"/>
  <!-- Brain / Neural nodes pattern in white overlay -->
  <circle cx="12" cy="7.5" r="1.2" fill="#FFFFFF"/>
  <circle cx="16" cy="11.5" r="1.2" fill="#FFFFFF"/>
  <circle cx="8" cy="11.5" r="1.2" fill="#FFFFFF"/>
  <circle cx="12" cy="15.5" r="1.2" fill="#FFFFFF"/>
  <!-- Connecting neural paths -->
  <line x1="12" y1="7.5" x2="16" y2="11.5" stroke="#FFFFFF" stroke-width="0.8"/>
  <line x1="12" y1="7.5" x2="8" y2="11.5" stroke="#FFFFFF" stroke-width="0.8"/>
  <line x1="8" y1="11.5" x2="12" y2="15.5" stroke="#FFFFFF" stroke-width="0.8"/>
  <line x1="16" y1="11.5" x2="12" y2="15.5" stroke="#FFFFFF" stroke-width="0.8"/>
</svg>